PathFileType	4	(X/Y/Z)	C:\Users\Basilio\Documents\Thesis Gigler\squatting_fais\c3dfiles\073\SLS_back_pre4\markers_experimental.trc
DataRate	CameraRate	NumFrames	NumMarkers	Units	OrigDataRate	OrigDataStartFrame	OrigNumFrames
200.000000	200.000000	4	61	mm	200.000000	335	1341
Frame#	Time	FHD			LBHD			RBHD			C7			T10			CLAV			LSHO			LUUPA			LMUPA			LDUPA			LLEP			LMEP			LRAD			LUL			LRFIN			RSHO			RUPA1			RMUPA			RDUPA			RLEP			RMEP			RUL			RUFIN			LASI			RASI			USACR			LSACR			RSACR			LTHI1			LTHI2			LTHI3			LTHI4			LLFC			LTIB1			LTIB2			LTIB3			LTIB4			LLMAL			LMMAL			LHEE			LMT1			LMT2			LMT5			RTHI			RTHI2			RTHI3			RTHI4			RLFC			RMFC			RTIB1			RTIB2			RTIB3			RTIB4			RLMAL			RMMAL			RHEE			RMT1			RMT2			RMT5			LMFC			RRAD			
		X1	Y1	Z1	X2	Y2	Z2	X3	Y3	Z3	X4	Y4	Z4	X5	Y5	Z5	X6	Y6	Z6	X7	Y7	Z7	X8	Y8	Z8	X9	Y9	Z9	X10	Y10	Z10	X11	Y11	Z11	X12	Y12	Z12	X13	Y13	Z13	X14	Y14	Z14	X15	Y15	Z15	X16	Y16	Z16	X17	Y17	Z17	X18	Y18	Z18	X19	Y19	Z19	X20	Y20	Z20	X21	Y21	Z21	X22	Y22	Z22	X23	Y23	Z23	X24	Y24	Z24	X25	Y25	Z25	X26	Y26	Z26	X27	Y27	Z27	X28	Y28	Z28	X29	Y29	Z29	X30	Y30	Z30	X31	Y31	Z31	X32	Y32	Z32	X33	Y33	Z33	X34	Y34	Z34	X35	Y35	Z35	X36	Y36	Z36	X37	Y37	Z37	X38	Y38	Z38	X39	Y39	Z39	X40	Y40	Z40	X41	Y41	Z41	X42	Y42	Z42	X43	Y43	Z43	X44	Y44	Z44	X45	Y45	Z45	X46	Y46	Z46	X47	Y47	Z47	X48	Y48	Z48	X49	Y49	Z49	X50	Y50	Z50	X51	Y51	Z51	X52	Y52	Z52	X53	Y53	Z53	X54	Y54	Z54	X55	Y55	Z55	X56	Y56	Z56	X57	Y57	Z57	X58	Y58	Z58	X59	Y59	Z59	X60	Y60	Z60	X61	Y61	Z61	

336	1.675	-71.17483520507814	1568.844116210938	-753.6046752929689	-206.8453826904297	1550.018432617188	-779.3088378906252	-232.3350524902344	1533.7822265625	-646.2063598632814	-272.9992065429688	1450.948364257813	-708.6032714843751	-424.791229248047	1152.578369140625	-729.8175659179689	-174.9691009521485	1337.522216796875	-711.0255126953126	-194.2962493896485	1405.910034179688	-845.324157714844	-122.3500061035157	1330.656616210938	-944.4230957031252	-80.24462890625001	1344.495483398438	-920.9193115234377	-63.63290405273439	1297.416137695313	-956.2094726562502	38.25821685791016	1263.295776367188	-960.404968261719	29.47730445861817	1206.136108398438	-918.877868652344	294.5677795410157	1269.7275390625	-839.0906982421877	301.0526123046876	1267.185791015625	-913.2960205078127	378.0480957031251	1271.747436523438	-829.0102539062502	-179.1734619140625	1384.374755859375	-570.2759399414064	-104.1018142700196	1276.674560546875	-469.2851867675782	-62.54345703125001	1294.487548828125	-485.457733154297	-44.26287460327149	1241.8349609375	-463.202362060547	45.85483551025391	1216.427001953125	-462.8950195312501	38.40293884277344	1164.2216796875	-527.2908935546876	306.9180297851563	1251.191162109375	-512.9691162109376	385.8364257812501	1268.718872070313	-592.3714599609376	-317.2107543945313	948.897644042969	-859.1898193359377	-324.0076904296876	947.435241699219	-613.6760864257814	-480.2450256347657	1056.3896484375	-733.8353881835939	-497.7749328613282	1031.7666015625	-762.6895141601564	-504.5462951660157	1030.354125976563	-706.0820922851564	-359.4037475585938	635.5867309570314	-915.6074829101565	-323.0919189453126	560.0671997070314	-897.7491455078127	-283.3222961425782	564.3210449218751	-869.0332031250002	-353.4811706542969	508.7921752929689	-888.8906860351565	-366.1057128906251	464.3072814941407	-888.761901855469	-524.3765258789064	363.5591125488282	-842.2204589843752	-576.1918945312501	410.6270141601564	-894.656921386719	-573.8841552734376	371.4302978515626	-874.513366699219	-650.5568847656251	354.2377014160157	-842.2763671875002	-778.3940429687502	389.5316467285157	-869.8035888671877	-751.9366455078126	383.4845886230469	-784.5488281250002	-814.6343383789065	445.8588867187501	-827.073425292969	-798.506042480469	224.3543395996094	-784.3316650390627	-799.5462646484377	221.1528625488282	-824.1697387695315	-828.3820800781252	251.9559326171876	-875.3243408203127	-356.7364196777344	735.6009521484376	-545.9689941406251	-301.8067932128907	698.6201171875001	-548.4088134765626	-271.7411804199219	712.2455444335939	-553.2943115234376	-296.8740234375001	618.1667480468751	-573.6057128906251	-237.2779693603516	487.6828613281251	-598.2068481445314	-230.4773406982422	491.5640869140626	-726.3905639648439	-228.5097198486329	334.8077392578126	-706.0837402343751	-269.6178894042969	253.6562652587891	-648.3829956054689	-248.0215454101563	251.6215362548829	-691.8168945312501	-278.2719421386719	217.6981964111329	-727.7238769531251	-356.4497680664063	96.53789520263675	-686.3377075195314	-348.4751281738282	129.4530639648438	-770.8257446289065	-430.3886108398439	81.66018676757814	-744.2573852539064	-206.8428039550782	55.28326797485353	-760.2410278320314	-206.1107025146485	51.32554244995119	-719.8194580078126	-248.5153045654297	34.2876205444336	-670.1816406250001	-375.8034362792969	462.1905517578126	-753.9455566406251	294.2524719238282	1246.783813476563	-587.1163940429689	
337	1.68	-70.70961761474611	1567.5703125	-753.4747924804689	-206.2276611328126	1548.736328125	-779.3433227539065	-231.8742065429688	1532.363159179688	-646.3680419921876	-272.4407348632813	1449.816772460938	-708.7385864257814	-424.7963256835939	1151.78466796875	-729.8859252929689	-174.6016082763672	1336.207397460938	-711.0226440429689	-193.6907196044922	1404.667114257813	-845.3762817382815	-121.7490615844727	1329.362548828125	-944.439880371094	-79.61724853515626	1343.331420898438	-920.8347167968752	-63.02950668334962	1296.301025390625	-956.1389770507815	38.66112136840821	1262.104248046875	-960.4877929687502	29.90891838073731	1204.728515625	-918.9693603515627	295.1204833984376	1268.425659179688	-839.089050292969	301.5773925781251	1265.713500976563	-913.3760986328127	378.5195007324219	1270.226440429688	-829.0439453125002	-178.6885070800782	1383.09033203125	-570.3589477539064	-103.7500915527344	1275.361938476563	-469.257293701172	-62.27090072631837	1293.121826171875	-485.5052490234376	-43.96059799194337	1240.477416992188	-463.2486267089845	46.15901565551759	1215.00341796875	-462.9515380859376	38.69812393188477	1162.816650390625	-527.4780273437501	307.1806335449219	1249.68603515625	-512.9892578125001	386.2063293457032	1267.129150390625	-592.3162841796876	-317.6045227050782	947.9290161132815	-859.1121826171877	-324.5144958496094	946.6149902343752	-613.7693481445314	-480.5628051757814	1055.617553710938	-733.8676147460939	-498.065643310547	1031.1943359375	-762.7792968750001	-504.8291931152345	1029.788330078125	-706.1328125000001	-360.3623352050782	634.8044433593751	-915.915222167969	-323.8517150878907	559.2744750976564	-897.6744384765627	-284.0699768066407	563.3004760742189	-869.2375488281252	-354.3348388671876	507.9243164062501	-888.9390869140627	-366.8450622558594	463.4321899414064	-888.8020629882815	-525.1792602539064	362.8624877929688	-842.2054443359377	-576.9173583984376	410.0867614746095	-894.6116943359377	-574.8345336914064	370.7081909179688	-874.6297607421877	-651.3730468750001	353.7771911621094	-842.098571777344	-779.2674560546877	389.2859191894532	-869.8057861328127	-752.7707519531251	383.2156677246094	-784.502136230469	-815.3568115234377	445.6343994140626	-827.1162719726565	-799.6629638671877	224.1853942871094	-784.330505371094	-800.5215454101565	220.8741607666016	-824.160339355469	-829.2629394531252	251.7911071777344	-875.2167968750002	-356.8421630859376	735.0483398437501	-545.9437255859376	-301.7757263183594	698.1545410156251	-548.3245849609376	-271.7827453613282	711.9744873046876	-553.3538208007814	-296.5787658691407	617.7844238281251	-573.5404663085939	-236.8654785156251	487.3839111328126	-598.0776367187501	-230.0671691894532	491.304901123047	-726.3967285156251	-228.1378326416016	334.6378479003907	-706.1538696289064	-269.3459167480469	253.6199493408204	-648.5261840820314	-247.7823028564454	251.4740753173829	-691.9216918945314	-278.3386840820313	217.7157135009766	-727.6945190429689	-356.4218444824219	96.49975585937503	-686.3693847656251	-348.4418945312501	129.4694366455078	-770.8238525390627	-430.4174194335939	81.67817687988283	-744.2089233398439	-206.8252868652344	55.24639129638673	-760.2680664062501	-206.0957336425782	51.32035064697267	-719.8563842773439	-248.5135955810547	34.28296661376954	-670.1799316406251	-376.5597534179688	461.3739318847657	-753.8672485351564	294.8407592773438	1244.980834960938	-586.7355957031251	
338	1.685	-69.40642547607423	1566.388671875	-753.6304931640626	-205.7885437011719	1547.411743164063	-779.4331665039065	-231.4371795654297	1531.06689453125	-646.5315551757814	-271.8598937988282	1448.624267578125	-708.8311157226564	-424.7938232421876	1150.945190429688	-729.9466552734376	-174.1837615966797	1334.900634765625	-711.1226806640626	-193.1535186767579	1403.408935546875	-845.379089355469	-121.3915252685547	1328.123779296875	-944.589782714844	-79.2856903076172	1341.959838867188	-920.8870849609377	-62.50037765502931	1294.86181640625	-956.2998046875002	39.23711013793946	1260.572143554688	-960.6487426757815	30.41278076171876	1203.268920898438	-919.156433105469	295.6036071777344	1266.967041015625	-839.2347412109377	302.0444641113282	1264.171142578125	-913.473815917969	378.8897399902344	1268.533325195313	-829.2821044921877	-178.3162841796875	1381.786865234375	-570.4417724609376	-103.4799270629883	1274.088989257813	-469.4795532226564	-61.95359039306642	1291.833251953125	-485.5053710937501	-43.72389602661134	1239.212036132813	-463.3133544921876	46.35539245605469	1213.612670898438	-463.0439758300782	39.02537155151368	1161.431518554688	-527.5471801757814	307.5201416015626	1248.141723632813	-513.0189208984376	386.4868774414064	1265.662963867188	-592.3352050781251	-318.1555175781251	946.9288330078127	-859.201354980469	-325.0341796875001	945.803894042969	-613.7258300781251	-480.9849243164064	1054.991088867188	-733.9840698242189	-498.4741516113282	1030.574951171875	-762.7688598632814	-505.2773437500001	1029.221435546875	-706.2199707031251	-360.9194335937501	633.6917114257814	-915.782897949219	-324.5363159179688	558.3718261718751	-897.6679687500002	-284.7402648925782	562.5933227539064	-869.3789062500002	-355.1128234863282	507.0445251464845	-888.9294433593752	-367.5705566406251	462.6537475585939	-888.6936645507815	-526.1378173828126	362.2172241210938	-842.2642822265627	-577.7173461914064	409.5167541503907	-894.5488281250002	-575.8616943359376	370.2230834960938	-874.6384277343752	-652.1894531250001	353.2812194824219	-841.912536621094	-780.1209716796877	389.0448608398439	-869.8302001953127	-753.6405029296876	382.9235229492188	-784.4427490234377	-816.1474609375002	445.4368896484376	-827.200622558594	-800.6531982421877	223.9312438964844	-784.2823486328127	-801.565612792969	220.6991271972657	-823.887390136719	-830.2141723632815	251.7032318115235	-875.3106079101565	-356.8859558105469	734.4519042968751	-545.9179077148439	-301.7755126953126	697.7348632812501	-548.3024291992189	-271.7569580078126	711.6879882812501	-553.3259887695314	-296.3399047851563	617.3834228515626	-573.5062255859376	-236.2188110351563	487.2645263671876	-598.1781616210939	-229.6465606689454	491.0803833007814	-726.3059082031251	-227.6963806152344	334.4449768066407	-706.1024780273439	-269.1057128906251	253.4497222900391	-648.4310913085939	-247.5481109619141	251.2786102294922	-691.9267578125001	-278.2140197753907	217.6348876953126	-727.6668090820314	-356.4244995117188	96.49624633789065	-686.3720092773439	-348.4539489746094	129.4360809326172	-770.811950683594	-430.4298095703126	81.66188812255861	-744.1909790039064	-206.8432006835938	55.24280548095705	-760.2501220703126	-206.1044921875001	51.33681869506837	-719.8018798828126	-248.5110168457032	34.28302001953126	-670.1838989257814	-377.3731994628907	460.5744628906251	-753.8784179687501	294.8353271484376	1243.645141601563	-586.9746704101564	
339	1.69	-68.99124908447267	1564.97705078125	-753.6381225585939	-205.1680908203126	1546.16455078125	-779.5186157226565	-230.9656829833985	1529.73681640625	-646.5051879882814	-271.2874145507813	1447.373901367188	-708.9457397460939	-424.9727172851564	1150.0947265625	-730.0668334960939	-173.9193878173828	1333.4267578125	-711.2246093750001	-192.7835845947266	1402.129150390625	-845.499206542969	-120.9230041503907	1326.9541015625	-944.5576782226565	-78.68136596679689	1340.669677734375	-920.9810791015627	-61.93523406982423	1293.679321289063	-956.3785400390627	39.58198165893555	1259.324584960938	-960.6539306640627	30.73029518127442	1202.041259765625	-919.2436523437502	296.0319824218751	1265.357543945313	-839.3064575195315	302.4333190917969	1262.669311523438	-913.5358886718752	379.3551025390626	1267.03173828125	-829.2544555664065	-177.8255310058594	1380.630493164063	-570.5778198242189	-103.153190612793	1272.796508789063	-469.5753479003907	-61.63943481445314	1290.47265625	-485.6096191406251	-43.43560409545899	1237.831298828125	-463.3751831054689	46.67607116699219	1212.314453125	-463.052215576172	39.24263000488282	1160.125732421875	-527.5816650390626	307.7609863281251	1246.630126953125	-512.9302978515626	386.8571166992189	1264.036743164063	-592.2276611328126	-318.7036132812501	945.973327636719	-859.2385864257815	-325.5537414550782	944.8581542968752	-613.8641967773439	-481.2865600585939	1054.363037109375	-734.1119384765626	-498.7428283691407	1029.772216796875	-762.8375854492189	-505.5918273925782	1028.588134765625	-706.2378540039064	-361.6878662109376	632.8526611328126	-915.8427734375002	-325.2724609375001	557.4100341796876	-897.7021484375002	-285.5180969238282	561.6341552734376	-869.1887207031252	-355.7568664550782	506.0967407226564	-888.9350585937502	-368.3814086914063	461.7589111328126	-888.6917114257815	-527.1170043945314	361.5410461425782	-842.377868652344	-578.5990600585939	409.0387573242189	-894.5438232421877	-576.9852905273439	369.7904357910157	-874.787292480469	-653.2290039062501	352.8641967773438	-842.1577148437502	-781.0000610351565	388.6750488281251	-869.7344360351565	-754.6361694335939	382.6207580566407	-784.5603637695315	-816.9020996093752	445.2557678222657	-827.269958496094	-801.7479248046877	223.8128967285157	-784.3272705078127	-802.5692138671877	220.4270477294922	-823.9646606445315	-831.5547485351565	251.5288543701172	-875.3208618164065	-356.9840087890626	733.9238281250001	-545.8638916015626	-301.7264099121094	697.3067016601564	-548.1471557617189	-271.7812805175782	711.3981323242189	-553.3312988281251	-296.0986633300782	616.9826049804689	-573.4613647460939	-235.6859283447266	487.0455627441407	-598.1682739257814	-229.2245788574219	490.9133300781251	-726.2488403320314	-227.3387908935547	334.2553710937501	-706.1096801757814	-268.8720703125001	253.3719177246094	-648.4197998046876	-247.4323120117188	251.1269531250001	-691.9461669921876	-278.1158752441407	217.5877990722657	-727.6958618164064	-356.3711853027344	96.49308776855472	-686.3189086914064	-348.3912658691407	129.4697723388672	-770.8796386718752	-430.4598999023439	81.6876907348633	-744.1438598632814	-206.8803253173829	55.25236892700197	-760.2504272460939	-206.0956420898438	51.31710433959962	-719.8838500976564	-248.512680053711	34.3026466369629	-670.1835937500001	-378.1112976074219	459.7101440429689	-754.1118164062501	295.3620605468751	1241.930419921875	-586.8051757812501	
